<svg version="1.1" xmlns="http://www.w3.org/2000/svg" viewBox="0 0 1978.4778412089167 982.8519852788418" width="3956.9556824178335" height="1965.7039705576835">
  <!-- svg-source:excalidraw -->
  
  <defs>
    <style class="style-fonts">
      @font-face {
        font-family: "Virgil";
        src: url("https://excalidraw.com/Virgil.woff2");
      }
      @font-face {
        font-family: "Cascadia";
        src: url("https://excalidraw.com/Cascadia.woff2");
      }
    </style>
    
  </defs>
  <g stroke-opacity="0" fill-opacity="0" stroke-linecap="round" transform="translate(690.3653060578299 34.828499320893954) rotate(0 285.5 27.500000000000007)"><path d="M-0.6 -0.01 C138.33 -0.66, 277.94 -0.2, 571.26 0.01 M0.38 -0.11 C166.29 0.5, 331.94 0.59, 570.74 0.06 M572.95 1.6 C569.63 13.94, 571.77 28.81, 571.61 55.82 M570.24 0.05 C570.12 11.46, 570.98 22.58, 570.51 54.14 M571.36 55.03 C453.17 53.62, 335.9 53.43, 0.64 54.35 M571.29 55.22 C438.21 53.42, 305.26 52.74, -0.32 54.75 M0.61 55.99 C0 35.24, 1.54 12.89, 0.74 1.62 M-0.49 55.68 C0.34 35.62, -0.05 15.65, -0.4 0.05" stroke="#1971c2" stroke-width="1" fill="none"></path></g><g transform="translate(714.629111925879 37.7232632142444) rotate(0 280.1833190917969 22.500000000000007)"><text x="280.1833190917969" y="0" font-family="Virgil, Segoe UI Emoji" font-size="36px" fill="#1e1e1e" text-anchor="middle" style="white-space: pre;" direction="ltr" dominant-baseline="text-before-edge">What is Open Science *to you*?</text></g><g transform="translate(714.629111925879 123.35074943606776) rotate(0 248.46665954589844 62.5)"><text x="0" y="0" font-family="Virgil, Segoe UI Emoji" font-size="20px" fill="#1e1e1e" text-anchor="start" style="white-space: pre;" direction="ltr" dominant-baseline="text-before-edge">You have until 10:20 h to gather your thoughts …</text><text x="0" y="25" font-family="Virgil, Segoe UI Emoji" font-size="20px" fill="#1e1e1e" text-anchor="start" style="white-space: pre;" direction="ltr" dominant-baseline="text-before-edge"></text><text x="0" y="50" font-family="Virgil, Segoe UI Emoji" font-size="20px" fill="#1e1e1e" text-anchor="start" style="white-space: pre;" direction="ltr" dominant-baseline="text-before-edge">- Why is it important to you?</text><text x="0" y="75" font-family="Virgil, Segoe UI Emoji" font-size="20px" fill="#1e1e1e" text-anchor="start" style="white-space: pre;" direction="ltr" dominant-baseline="text-before-edge">- How is it useful to you?</text><text x="0" y="100" font-family="Virgil, Segoe UI Emoji" font-size="20px" fill="#1e1e1e" text-anchor="start" style="white-space: pre;" direction="ltr" dominant-baseline="text-before-edge">- Which aspects do you aim to implement?</text></g><g transform="translate(54.74366514096948 345.7131385300684) rotate(0 64.86666870117188 22.5)"><text x="0" y="0" font-family="Virgil, Segoe UI Emoji" font-size="36px" fill="#e03131" text-anchor="start" style="white-space: pre;" direction="ltr" dominant-baseline="text-before-edge">Group 1</text></g><g stroke-linecap="round" transform="translate(10 322.8801499371038) rotate(0 309.1716241644193 321.0928935120555)"><path d="M32 0 M32 0 C246.75 -0.18, 460.97 -0.07, 586.34 0 M32 0 C164.96 -1.78, 298.87 -1.69, 586.34 0 M586.34 0 C608.38 -1.68, 617.16 9.37, 618.34 32 M586.34 0 C608.46 -0.48, 618.09 12.81, 618.34 32 M618.34 32 C620.37 251.91, 620.86 472.19, 618.34 610.19 M618.34 32 C619.88 215.28, 620.03 397.92, 618.34 610.19 M618.34 610.19 C618.63 632.08, 609.3 643.18, 586.34 642.19 M618.34 610.19 C619.01 631.55, 609.55 642.97, 586.34 642.19 M586.34 642.19 C391.66 639.47, 196.07 640.51, 32 642.19 M586.34 642.19 C365.45 642.88, 144.45 642.46, 32 642.19 M32 642.19 C10.09 641.15, 0.62 631.82, 0 610.19 M32 642.19 C11.39 641.47, 0.21 631.64, 0 610.19 M0 610.19 C1.29 449.14, 2.6 288.28, 0 32 M0 610.19 C2.04 441.32, 1.82 272.16, 0 32 M0 32 C-1.23 12.53, 12.57 -0.36, 32 0 M0 32 C-2.16 12.5, 12.61 -0.87, 32 0" stroke="#e03131" stroke-width="1" fill="none"></path></g><g transform="translate(728.3837507111506 345.4908284943256) rotate(0 72.80000305175781 22.5)"><text x="0" y="0" font-family="Virgil, Segoe UI Emoji" font-size="36px" fill="#2f9e44" text-anchor="start" style="white-space: pre;" direction="ltr" dominant-baseline="text-before-edge">Group 2</text></g><g stroke-linecap="round" transform="translate(679.7853094140704 324.9853860437535) rotate(0 325.34454000434226 323.9332996175441)"><path d="M32 0 M32 0 C207.32 1.67, 381.71 0.46, 618.69 0 M32 0 C157.83 1.66, 284.3 1.74, 618.69 0 M618.69 0 C641.2 -0.21, 648.72 10.57, 650.69 32 M618.69 0 C637.97 2.08, 649.54 8.81, 650.69 32 M650.69 32 C652.36 250.83, 651.56 469.77, 650.69 615.87 M650.69 32 C650.44 172.59, 650.95 313.08, 650.69 615.87 M650.69 615.87 C651.38 637.28, 639.04 647.19, 618.69 647.87 M650.69 615.87 C648.65 636.06, 639.12 649.37, 618.69 647.87 M618.69 647.87 C472.48 646.94, 327.2 647.83, 32 647.87 M618.69 647.87 C436.59 650.5, 254.88 650.17, 32 647.87 M32 647.87 C12.11 646.17, -1.42 639.1, 0 615.87 M32 647.87 C10.32 648.67, 0.07 636.46, 0 615.87 M0 615.87 C-0.34 461.82, -1.45 308.28, 0 32 M0 615.87 C1.08 391.66, 1.52 166.5, 0 32 M0 32 C0.59 9.64, 8.73 1.86, 32 0 M0 32 C-1.84 11.27, 12.95 -0.7, 32 0" stroke="#2f9e44" stroke-width="1" fill="none"></path></g><g transform="translate(1377.176289470999 347.5960646009751) rotate(0 72.23332977294922 22.5)"><text x="0" y="0" font-family="Virgil, Segoe UI Emoji" font-size="36px" fill="#1971c2" text-anchor="start" style="white-space: pre;" direction="ltr" dominant-baseline="text-before-edge">Group 3</text></g><g stroke-linecap="round" transform="translate(1358.5778481739194 322.8801499371038) rotate(0 304.9499965174987 320.01133522224984)"><path d="M32 0 M32 0 C218.23 1.77, 403.28 1.34, 577.9 0 M32 0 C200.34 2.11, 369.51 1.45, 577.9 0 M577.9 0 C597.58 -1.32, 610.15 9.1, 609.9 32 M577.9 0 C597.56 1.19, 610.2 12.52, 609.9 32 M609.9 32 C607.09 211.94, 607.65 393.27, 609.9 608.02 M609.9 32 C611.4 206.81, 611.44 382.23, 609.9 608.02 M609.9 608.02 C610.87 629.62, 599.6 638.52, 577.9 640.02 M609.9 608.02 C611.01 628.18, 600.85 637.86, 577.9 640.02 M577.9 640.02 C403.02 641.09, 227 642.48, 32 640.02 M577.9 640.02 C360.49 638.24, 143.17 638.76, 32 640.02 M32 640.02 C10.5 641.91, 1.81 629.43, 0 608.02 M32 640.02 C9.92 640.04, 1.66 630.08, 0 608.02 M0 608.02 C0.3 393.11, 1.53 178.91, 0 32 M0 608.02 C2.4 440.83, 2.03 273.23, 0 32 M0 32 C1.36 9.49, 9.86 0.15, 32 0 M0 32 C-1.47 11.32, 8.44 -1.45, 32 0" stroke="#1971c2" stroke-width="1" fill="none"></path></g><g transform="translate(705.3470032346688 417.61577473633287) rotate(0 295.2166748046875 262.5)"><text x="0" y="0" font-family="Virgil, Segoe UI Emoji" font-size="20px" fill="#2f9e44" text-anchor="start" style="white-space: pre;" direction="ltr" dominant-baseline="text-before-edge">&gt; Why is it important to you?</text><text x="0" y="25" font-family="Virgil, Segoe UI Emoji" font-size="20px" fill="#2f9e44" text-anchor="start" style="white-space: pre;" direction="ltr" dominant-baseline="text-before-edge"></text><text x="0" y="50" font-family="Virgil, Segoe UI Emoji" font-size="20px" fill="#2f9e44" text-anchor="start" style="white-space: pre;" direction="ltr" dominant-baseline="text-before-edge">- requirement of journals (e.g., preregistered hypotheses,</text><text x="0" y="75" font-family="Virgil, Segoe UI Emoji" font-size="20px" fill="#2f9e44" text-anchor="start" style="white-space: pre;" direction="ltr" dominant-baseline="text-before-edge">data availability, code availability)</text><text x="0" y="100" font-family="Virgil, Segoe UI Emoji" font-size="20px" fill="#2f9e44" text-anchor="start" style="white-space: pre;" direction="ltr" dominant-baseline="text-before-edge">- credibility, transparency of research</text><text x="0" y="125" font-family="Virgil, Segoe UI Emoji" font-size="20px" fill="#2f9e44" text-anchor="start" style="white-space: pre;" direction="ltr" dominant-baseline="text-before-edge">- Discipline specific requirements (e.g., computer science </text><text x="0" y="150" font-family="Virgil, Segoe UI Emoji" font-size="20px" fill="#2f9e44" text-anchor="start" style="white-space: pre;" direction="ltr" dominant-baseline="text-before-edge">vs. communications), data specific requirements </text><text x="0" y="175" font-family="Virgil, Segoe UI Emoji" font-size="20px" fill="#2f9e44" text-anchor="start" style="white-space: pre;" direction="ltr" dominant-baseline="text-before-edge">(qual vs. quant)</text><text x="0" y="200" font-family="Virgil, Segoe UI Emoji" font-size="20px" fill="#2f9e44" text-anchor="start" style="white-space: pre;" direction="ltr" dominant-baseline="text-before-edge"></text><text x="0" y="225" font-family="Virgil, Segoe UI Emoji" font-size="20px" fill="#2f9e44" text-anchor="start" style="white-space: pre;" direction="ltr" dominant-baseline="text-before-edge">&gt; How is it useful to you?</text><text x="0" y="250" font-family="Virgil, Segoe UI Emoji" font-size="20px" fill="#2f9e44" text-anchor="start" style="white-space: pre;" direction="ltr" dominant-baseline="text-before-edge"></text><text x="0" y="275" font-family="Virgil, Segoe UI Emoji" font-size="20px" fill="#2f9e44" text-anchor="start" style="white-space: pre;" direction="ltr" dominant-baseline="text-before-edge">- it would allow us to reproduce/build on/contrast </text><text x="0" y="300" font-family="Virgil, Segoe UI Emoji" font-size="20px" fill="#2f9e44" text-anchor="start" style="white-space: pre;" direction="ltr" dominant-baseline="text-before-edge">findings of published research with our own work</text><text x="0" y="325" font-family="Virgil, Segoe UI Emoji" font-size="20px" fill="#2f9e44" text-anchor="start" style="white-space: pre;" direction="ltr" dominant-baseline="text-before-edge">- see points of question 1</text><text x="0" y="350" font-family="Virgil, Segoe UI Emoji" font-size="20px" fill="#2f9e44" text-anchor="start" style="white-space: pre;" direction="ltr" dominant-baseline="text-before-edge"></text><text x="0" y="375" font-family="Virgil, Segoe UI Emoji" font-size="20px" fill="#2f9e44" text-anchor="start" style="white-space: pre;" direction="ltr" dominant-baseline="text-before-edge">&gt; Which aspects do you aim to implement?</text><text x="0" y="400" font-family="Virgil, Segoe UI Emoji" font-size="20px" fill="#2f9e44" text-anchor="start" style="white-space: pre;" direction="ltr" dominant-baseline="text-before-edge"></text><text x="0" y="425" font-family="Virgil, Segoe UI Emoji" font-size="20px" fill="#2f9e44" text-anchor="start" style="white-space: pre;" direction="ltr" dominant-baseline="text-before-edge">- data and code management + how/where to publish data </text><text x="0" y="450" font-family="Virgil, Segoe UI Emoji" font-size="20px" fill="#2f9e44" text-anchor="start" style="white-space: pre;" direction="ltr" dominant-baseline="text-before-edge">and code (transparent sharing etc.)</text><text x="0" y="475" font-family="Virgil, Segoe UI Emoji" font-size="20px" fill="#2f9e44" text-anchor="start" style="white-space: pre;" direction="ltr" dominant-baseline="text-before-edge">- Organization of project files and folders</text><text x="0" y="500" font-family="Virgil, Segoe UI Emoji" font-size="20px" fill="#2f9e44" text-anchor="start" style="white-space: pre;" direction="ltr" dominant-baseline="text-before-edge">- Version control (how to use/choose repositories)</text></g><g transform="translate(1381.2227976910676 417.61577473633287) rotate(0 280.01666259765625 212.5)"><text x="0" y="0" font-family="Virgil, Segoe UI Emoji" font-size="20px" fill="#1971c2" text-anchor="start" style="white-space: pre;" direction="ltr" dominant-baseline="text-before-edge">- positive experience in the past: reviewers liked the</text><text x="0" y="25" font-family="Virgil, Segoe UI Emoji" font-size="20px" fill="#1971c2" text-anchor="start" style="white-space: pre;" direction="ltr" dominant-baseline="text-before-edge">availability of code and coding manuals</text><text x="0" y="50" font-family="Virgil, Segoe UI Emoji" font-size="20px" fill="#1971c2" text-anchor="start" style="white-space: pre;" direction="ltr" dominant-baseline="text-before-edge"></text><text x="0" y="75" font-family="Virgil, Segoe UI Emoji" font-size="20px" fill="#1971c2" text-anchor="start" style="white-space: pre;" direction="ltr" dominant-baseline="text-before-edge">- reusability: By publishing code and data, the public</text><text x="0" y="100" font-family="Virgil, Segoe UI Emoji" font-size="20px" fill="#1971c2" text-anchor="start" style="white-space: pre;" direction="ltr" dominant-baseline="text-before-edge">can adopt the code</text><text x="0" y="125" font-family="Virgil, Segoe UI Emoji" font-size="20px" fill="#1971c2" text-anchor="start" style="white-space: pre;" direction="ltr" dominant-baseline="text-before-edge"></text><text x="0" y="150" font-family="Virgil, Segoe UI Emoji" font-size="20px" fill="#1971c2" text-anchor="start" style="white-space: pre;" direction="ltr" dominant-baseline="text-before-edge">- also applies to students / colleagues: </text><text x="0" y="175" font-family="Virgil, Segoe UI Emoji" font-size="20px" fill="#1971c2" text-anchor="start" style="white-space: pre;" direction="ltr" dominant-baseline="text-before-edge">Once written down / published</text><text x="0" y="200" font-family="Virgil, Segoe UI Emoji" font-size="20px" fill="#1971c2" text-anchor="start" style="white-space: pre;" direction="ltr" dominant-baseline="text-before-edge">we can share the state of work with student and </text><text x="0" y="225" font-family="Virgil, Segoe UI Emoji" font-size="20px" fill="#1971c2" text-anchor="start" style="white-space: pre;" direction="ltr" dominant-baseline="text-before-edge">speed up the future research projects.</text><text x="0" y="250" font-family="Virgil, Segoe UI Emoji" font-size="20px" fill="#1971c2" text-anchor="start" style="white-space: pre;" direction="ltr" dominant-baseline="text-before-edge"></text><text x="0" y="275" font-family="Virgil, Segoe UI Emoji" font-size="20px" fill="#1971c2" text-anchor="start" style="white-space: pre;" direction="ltr" dominant-baseline="text-before-edge">- strategy for tackling the replication crisis: </text><text x="0" y="300" font-family="Virgil, Segoe UI Emoji" font-size="20px" fill="#1971c2" text-anchor="start" style="white-space: pre;" direction="ltr" dominant-baseline="text-before-edge">publish everything</text><text x="0" y="325" font-family="Virgil, Segoe UI Emoji" font-size="20px" fill="#1971c2" text-anchor="start" style="white-space: pre;" direction="ltr" dominant-baseline="text-before-edge"> </text><text x="0" y="350" font-family="Virgil, Segoe UI Emoji" font-size="20px" fill="#1971c2" text-anchor="start" style="white-space: pre;" direction="ltr" dominant-baseline="text-before-edge">- what to implement: As much as possible: It's important</text><text x="0" y="375" font-family="Virgil, Segoe UI Emoji" font-size="20px" fill="#1971c2" text-anchor="start" style="white-space: pre;" direction="ltr" dominant-baseline="text-before-edge">not to publish nothing if we can't follow 100% an open </text><text x="0" y="400" font-family="Virgil, Segoe UI Emoji" font-size="20px" fill="#1971c2" text-anchor="start" style="white-space: pre;" direction="ltr" dominant-baseline="text-before-edge">science strategy</text></g><g transform="translate(38.69094346074547 417.61577473633287) rotate(0 287.70001220703125 137.5)"><text x="0" y="0" font-family="Virgil, Segoe UI Emoji" font-size="20px" fill="#e03131" text-anchor="start" style="white-space: pre;" direction="ltr" dominant-baseline="text-before-edge">Store/manage data well</text><text x="0" y="25" font-family="Virgil, Segoe UI Emoji" font-size="20px" fill="#e03131" text-anchor="start" style="white-space: pre;" direction="ltr" dominant-baseline="text-before-edge"></text><text x="0" y="50" font-family="Virgil, Segoe UI Emoji" font-size="20px" fill="#e03131" text-anchor="start" style="white-space: pre;" direction="ltr" dominant-baseline="text-before-edge">Balance public interest &amp; privacy</text><text x="0" y="75" font-family="Virgil, Segoe UI Emoji" font-size="20px" fill="#e03131" text-anchor="start" style="white-space: pre;" direction="ltr" dominant-baseline="text-before-edge"></text><text x="0" y="100" font-family="Virgil, Segoe UI Emoji" font-size="20px" fill="#e03131" text-anchor="start" style="white-space: pre;" direction="ltr" dominant-baseline="text-before-edge">Public money should mean results/materials etc. are public</text><text x="0" y="125" font-family="Virgil, Segoe UI Emoji" font-size="20px" fill="#e03131" text-anchor="start" style="white-space: pre;" direction="ltr" dominant-baseline="text-before-edge"></text><text x="0" y="150" font-family="Virgil, Segoe UI Emoji" font-size="20px" fill="#e03131" text-anchor="start" style="white-space: pre;" direction="ltr" dominant-baseline="text-before-edge">Open access publishing</text><text x="0" y="175" font-family="Virgil, Segoe UI Emoji" font-size="20px" fill="#e03131" text-anchor="start" style="white-space: pre;" direction="ltr" dominant-baseline="text-before-edge">Share all materials, code, etc.</text><text x="0" y="200" font-family="Virgil, Segoe UI Emoji" font-size="20px" fill="#e03131" text-anchor="start" style="white-space: pre;" direction="ltr" dominant-baseline="text-before-edge">Reusing data, results</text><text x="0" y="225" font-family="Virgil, Segoe UI Emoji" font-size="20px" fill="#e03131" text-anchor="start" style="white-space: pre;" direction="ltr" dominant-baseline="text-before-edge">Pre-registered report</text><text x="0" y="250" font-family="Virgil, Segoe UI Emoji" font-size="20px" fill="#e03131" text-anchor="start" style="white-space: pre;" direction="ltr" dominant-baseline="text-before-edge">Effective management of publications, data, results</text></g><g stroke-linecap="round" transform="translate(680.200205307745 10) rotate(0 312.62756183745574 134.73511082557027)"><path d="M32 0 M32 0 C184.9 -0.05, 337.21 -0.78, 593.26 0 M32 0 C181.72 0.34, 331.11 0.84, 593.26 0 M593.26 0 C613.38 0.49, 625.13 11.99, 625.26 32 M593.26 0 C613.67 -1.44, 625.17 12.72, 625.26 32 M625.26 32 C625.53 98.84, 622.77 165.16, 625.26 237.47 M625.26 32 C624.66 96.3, 623.82 161.77, 625.26 237.47 M625.26 237.47 C625.79 258.97, 616.5 268.69, 593.26 269.47 M625.26 237.47 C625.52 258.02, 613.31 270.22, 593.26 269.47 M593.26 269.47 C405.81 269.37, 219.03 268.95, 32 269.47 M593.26 269.47 C477.97 268.16, 363.19 268.26, 32 269.47 M32 269.47 C10.64 271.31, 1.53 259.66, 0 237.47 M32 269.47 C11.04 268.99, 1.56 256.55, 0 237.47 M0 237.47 C-0.92 162.89, 1.04 89.1, 0 32 M0 237.47 C-1.66 189.04, -0.9 139.7, 0 32 M0 32 C1.86 9.06, 11.19 -1.98, 32 0 M0 32 C1.62 11.96, 11.28 0.21, 32 0" stroke="#1e1e1e" stroke-width="1" fill="none"></path></g></svg>